<svg width="134" height="61" viewBox="0 0 134 61" fill="none" xmlns="http://www.w3.org/2000/svg">
<path d="M21.8692 39.0247V28.0768C21.8692 27.5221 21.4177 27.0734 20.863 27.0768L15.9939 27.1066C15.444 27.11 15 27.5567 15 28.1066V46C15 46.5523 15.4477 47 16 47H49C49.5523 47 50 46.5523 50 46V12.6764C50 12.3324 49.8232 12.0126 49.5319 11.8296L31.2425 0.340182C30.9123 0.132786 30.4917 0.136177 30.165 0.348872L25.6435 3.29201C25.0291 3.69197 25.0396 4.59525 25.6633 4.98072L42.6566 15.4843C42.9514 15.6665 43.1308 15.9883 43.1308 16.3349V39.0247C43.1308 39.577 42.6831 40.0247 42.1308 40.0247H22.8692C22.3169 40.0247 21.8692 39.577 21.8692 39.0247Z" fill="#F18200"/>
<path d="M36 21.2036V33.7707C36 34.3307 36 34.6108 35.891 34.8247C35.7951 35.0128 35.6422 35.1658 35.454 35.2617C35.2401 35.3707 34.9601 35.3707 34.4 35.3707H30.5346C29.9745 35.3707 29.6945 35.3707 29.4806 35.2617C29.2924 35.1658 29.1394 35.0128 29.0436 34.8247C28.9346 34.6108 28.9346 34.3307 28.9346 33.7707V28.5931C28.9346 26.9433 28.9346 26.1184 28.6981 25.377C28.4888 24.7209 28.1462 24.1151 27.6918 23.5976C27.1783 23.0128 26.4714 22.5876 25.0575 21.7374L21.7625 19.7558C20.2141 18.8247 19.4399 18.3591 18.615 18.1855C17.8856 18.032 17.1311 18.0436 16.4067 18.2193C15.5875 18.4181 14.8279 18.9072 13.3087 19.8853L10.7345 21.5427L10.7345 21.5427C9.39422 22.4057 8.72406 22.8372 8.23837 23.4149C7.80845 23.9262 7.48536 24.5185 7.28818 25.1568C7.06542 25.8779 7.06542 26.6749 7.06542 28.2691V45.4C7.06542 45.9601 7.06542 46.2401 6.95643 46.454C6.86055 46.6422 6.70757 46.7951 6.51941 46.891C6.3055 47 6.02547 47 5.46542 47H1.6C1.03995 47 0.759921 47 0.546009 46.891C0.357847 46.7951 0.204867 46.6422 0.108993 46.454C0 46.2401 0 45.9601 0 45.4V21.0115C0 20.6924 0 20.5328 0.0446189 20.3885C0.0841141 20.2608 0.148827 20.1423 0.234931 20.04C0.332204 19.9244 0.466416 19.8381 0.73484 19.6656L16.4874 9.53975C16.7921 9.34392 16.9444 9.246 17.1086 9.20641C17.2538 9.17139 17.405 9.16935 17.5511 9.20043C17.7163 9.23557 17.8712 9.32933 18.1811 9.51685L35.2285 19.8348C35.5099 20.0051 35.6506 20.0902 35.7527 20.2071C35.8432 20.3105 35.9113 20.4314 35.953 20.5623C36 20.7102 36 20.8746 36 21.2036Z" fill="white"/>
<path d="M65.694 29V5.32H70.622V14.76H79.838V5.32H84.766V29H79.838V19.048H70.622V29H65.694Z" fill="white"/>
<path d="M96.9395 29.32C95.3608 29.32 93.9315 29.0427 92.6515 28.488C91.3715 27.912 90.3475 27.1013 89.5795 26.056C88.8115 24.9893 88.4275 23.7093 88.4275 22.216C88.4275 20.7867 88.8008 19.56 89.5475 18.536C90.2942 17.4907 91.3715 16.5627 92.7795 15.752C92.2888 15.176 91.8195 14.4933 91.3715 13.704C90.9448 12.9147 90.7315 11.9547 90.7315 10.824C90.7315 9.544 91.0408 8.47733 91.6595 7.624C92.2782 6.74933 93.0675 6.09867 94.0275 5.672C95.0088 5.224 96.0328 5 97.0995 5C98.1662 5 99.1688 5.21333 100.108 5.64C101.046 6.04533 101.814 6.64267 102.411 7.432C103.009 8.22133 103.308 9.20267 103.308 10.376C103.308 11.784 102.881 12.968 102.028 13.928C101.196 14.888 100.15 15.7093 98.8915 16.392L103.148 21C103.404 20.296 103.606 19.496 103.756 18.6C103.905 17.6827 103.979 16.6587 103.979 15.528H107.852C107.852 17.3413 107.681 18.9627 107.34 20.392C107.02 21.8 106.572 23.0373 105.996 24.104L110.444 28.936H104.492L103.116 27.4C102.241 28.0613 101.27 28.552 100.204 28.872C99.1582 29.1707 98.0702 29.32 96.9395 29.32ZM94.7635 10.632C94.7635 11.2293 94.9555 11.8053 95.3395 12.36C95.7235 12.8933 96.1395 13.4053 96.5875 13.896C97.3342 13.5333 97.9742 13.0853 98.5075 12.552C99.0408 11.9973 99.3075 11.3253 99.3075 10.536C99.3075 9.81067 99.0728 9.26667 98.6035 8.904C98.1555 8.52 97.6542 8.328 97.0995 8.328C96.5022 8.328 95.9582 8.53067 95.4675 8.936C94.9982 9.32 94.7635 9.88533 94.7635 10.632ZM92.8435 21.864C92.8435 22.9093 93.2382 23.784 94.0275 24.488C94.8168 25.192 95.8728 25.544 97.1955 25.544C97.7928 25.544 98.3795 25.4693 98.9555 25.32C99.5315 25.1493 100.065 24.8827 100.556 24.52L95.0835 18.376C94.3795 18.8453 93.8248 19.368 93.4195 19.944C93.0355 20.4987 92.8435 21.1387 92.8435 21.864Z" fill="white"/>
<path d="M113.538 29V5.32H118.466V14.76H127.682V5.32H132.61V29H127.682V19.048H118.466V29H113.538Z" fill="white"/>
<path d="M65 47V32.57H69.9335C71.0905 32.57 72.1045 32.778 72.9755 33.194C73.8465 33.597 74.568 34.143 75.14 34.832C75.725 35.521 76.1605 36.2945 76.4465 37.1525C76.7455 38.0105 76.895 38.888 76.895 39.785C76.895 40.682 76.7455 41.5595 76.4465 42.4175C76.1605 43.2755 75.725 44.049 75.14 44.738C74.568 45.427 73.8465 45.9795 72.9755 46.3955C72.1045 46.7985 71.0905 47 69.9335 47H65ZM69.836 34.559H67.2815V44.9915H69.836C70.642 44.9915 71.344 44.8485 71.942 44.5625C72.54 44.2635 73.034 43.867 73.424 43.373C73.814 42.866 74.1065 42.307 74.3015 41.696C74.5095 41.072 74.6135 40.435 74.6135 39.785C74.6135 39.135 74.5095 38.498 74.3015 37.874C74.1065 37.25 73.814 36.691 73.424 36.197C73.034 35.703 72.54 35.3065 71.942 35.0075C71.344 34.7085 70.642 34.559 69.836 34.559Z" fill="#F18200"/>
<path d="M79.3584 47V32.57H88.7769V34.559H81.6399V38.6735H87.8799V40.643H81.6399V45.011H88.8744V47H79.3584Z" fill="#F18200"/>
<path d="M97.9428 47.195C96.7858 47.195 95.7718 46.987 94.9008 46.571C94.0428 46.142 93.3213 45.5765 92.7363 44.8745C92.1643 44.1595 91.7288 43.3665 91.4298 42.4955C91.1438 41.6115 91.0008 40.708 91.0008 39.785C91.0008 38.862 91.1438 37.9585 91.4298 37.0745C91.7288 36.1905 92.1643 35.3975 92.7363 34.6955C93.3213 33.9805 94.0428 33.415 94.9008 32.999C95.7718 32.583 96.7858 32.375 97.9428 32.375C98.8918 32.375 99.7043 32.4985 100.38 32.7455C101.069 32.9925 101.641 33.311 102.096 33.701C102.564 34.078 102.935 34.481 103.208 34.91C103.494 35.339 103.702 35.7485 103.832 36.1385C103.975 36.5285 104.072 36.847 104.124 37.094C104.176 37.328 104.202 37.445 104.202 37.445H101.921C101.921 37.445 101.895 37.3475 101.843 37.1525C101.804 36.9445 101.706 36.691 101.55 36.392C101.407 36.093 101.186 35.8005 100.887 35.5145C100.601 35.2155 100.218 34.9685 99.7368 34.7735C99.2688 34.5655 98.6773 34.4615 97.9623 34.4615C97.1953 34.4615 96.5193 34.611 95.9343 34.91C95.3623 35.209 94.8813 35.612 94.4913 36.119C94.1013 36.626 93.8088 37.198 93.6138 37.835C93.4318 38.472 93.3408 39.122 93.3408 39.785C93.3408 40.448 93.4318 41.098 93.6138 41.735C93.8088 42.359 94.1013 42.931 94.4913 43.451C94.8813 43.958 95.3623 44.361 95.9343 44.66C96.5193 44.959 97.1953 45.1085 97.9623 45.1085C98.6773 45.1085 99.2688 45.011 99.7368 44.816C100.218 44.608 100.601 44.3545 100.887 44.0555C101.186 43.7565 101.407 43.4575 101.55 43.1585C101.706 42.8595 101.804 42.6125 101.843 42.4175C101.895 42.2095 101.921 42.1055 101.921 42.1055H104.202C104.202 42.1055 104.176 42.229 104.124 42.476C104.072 42.723 103.975 43.0415 103.832 43.4315C103.702 43.8085 103.494 44.218 103.208 44.66C102.935 45.089 102.564 45.4985 102.096 45.8885C101.641 46.2655 101.069 46.5775 100.38 46.8245C99.7043 47.0715 98.8918 47.195 97.9428 47.195Z" fill="#F18200"/>
<path d="M113.238 47.195C112.081 47.195 111.06 46.987 110.176 46.571C109.292 46.142 108.551 45.5765 107.953 44.8745C107.355 44.1595 106.907 43.36 106.608 42.476C106.309 41.592 106.159 40.6885 106.159 39.7655C106.159 38.8425 106.309 37.9455 106.608 37.0745C106.907 36.1905 107.355 35.3975 107.953 34.6955C108.551 33.9935 109.292 33.4345 110.176 33.0185C111.06 32.5895 112.081 32.375 113.238 32.375C114.408 32.375 115.435 32.5895 116.319 33.0185C117.203 33.4345 117.944 33.9935 118.542 34.6955C119.14 35.3975 119.588 36.1905 119.887 37.0745C120.186 37.9455 120.336 38.8425 120.336 39.7655C120.336 40.6885 120.186 41.592 119.887 42.476C119.588 43.36 119.14 44.1595 118.542 44.8745C117.944 45.5765 117.203 46.142 116.319 46.571C115.435 46.987 114.408 47.195 113.238 47.195ZM113.238 45.1085C114.278 45.1085 115.149 44.855 115.851 44.348C116.553 43.828 117.086 43.165 117.45 42.359C117.814 41.54 117.996 40.6755 117.996 39.7655C117.996 39.0895 117.892 38.4395 117.684 37.8155C117.476 37.1785 117.17 36.6065 116.767 36.0995C116.377 35.5925 115.883 35.196 115.285 34.91C114.7 34.611 114.018 34.4615 113.238 34.4615C112.471 34.4615 111.788 34.611 111.19 34.91C110.605 35.196 110.111 35.5925 109.708 36.0995C109.318 36.6065 109.019 37.1785 108.811 37.8155C108.603 38.4395 108.499 39.0895 108.499 39.7655C108.499 40.6755 108.681 41.54 109.045 42.359C109.409 43.165 109.942 43.828 110.644 44.348C111.346 44.855 112.211 45.1085 113.238 45.1085Z" fill="#F18200"/>
<path d="M122.795 47V32.57H128.158C129.185 32.57 130.049 32.7715 130.751 33.1745C131.466 33.5645 132.006 34.0845 132.37 34.7345C132.734 35.3715 132.916 36.067 132.916 36.821C132.916 37.731 132.656 38.5565 132.136 39.2975C131.629 40.0385 130.881 40.5585 129.893 40.8575L133.364 47H130.81L127.534 41.111H125.077V47H122.795ZM128.119 34.559H125.077V39.2H128.119C128.938 39.2 129.555 38.966 129.971 38.498C130.387 38.017 130.595 37.4775 130.595 36.8795C130.595 36.2815 130.387 35.7485 129.971 35.2805C129.555 34.7995 128.938 34.559 128.119 34.559Z" fill="#F18200"/>
<path d="M2.0475 59V54.215H0.3225V53.45H4.6425V54.215H2.9175V59H2.0475ZM4.97742 59V55.025H5.83242V55.55H5.86242C5.93742 55.395 6.05492 55.2575 6.21492 55.1375C6.37992 55.0125 6.61742 54.95 6.92742 54.95C7.02242 54.95 7.10242 54.955 7.16742 54.965C7.23742 54.975 7.27242 54.98 7.27242 54.98V55.805C7.27242 55.805 7.23492 55.8 7.15992 55.79C7.08492 55.78 6.99992 55.775 6.90492 55.775C6.55492 55.775 6.28742 55.875 6.10242 56.075C5.92242 56.27 5.83242 56.5875 5.83242 57.0275V59H4.97742ZM9.4708 54.95C9.7208 54.95 9.9283 54.99 10.0933 55.07C10.2633 55.15 10.3983 55.2425 10.4983 55.3475C10.5983 55.4525 10.6708 55.5425 10.7158 55.6175H10.7608V55.025H11.6158V59H10.7608V58.4075H10.7158C10.6708 58.4825 10.5983 58.5725 10.4983 58.6775C10.3983 58.7825 10.2633 58.875 10.0933 58.955C9.9283 59.035 9.7208 59.075 9.4708 59.075C9.1708 59.075 8.9083 59.0175 8.6833 58.9025C8.4633 58.7825 8.2783 58.625 8.1283 58.43C7.9783 58.23 7.8658 58.0075 7.7908 57.7625C7.7208 57.5175 7.6858 57.2675 7.6858 57.0125C7.6858 56.7575 7.7208 56.5075 7.7908 56.2625C7.8658 56.0175 7.9783 55.7975 8.1283 55.6025C8.2783 55.4025 8.4633 55.245 8.6833 55.13C8.9083 55.01 9.1708 54.95 9.4708 54.95ZM9.6583 55.6625C9.4133 55.6625 9.2083 55.73 9.0433 55.865C8.8783 55.995 8.7533 56.1625 8.6683 56.3675C8.5883 56.5725 8.5483 56.7875 8.5483 57.0125C8.5483 57.2375 8.5883 57.4525 8.6683 57.6575C8.7533 57.8625 8.8783 58.0325 9.0433 58.1675C9.2083 58.2975 9.4133 58.3625 9.6583 58.3625C9.9033 58.3625 10.1058 58.2975 10.2658 58.1675C10.4308 58.0325 10.5533 57.8625 10.6333 57.6575C10.7183 57.4525 10.7608 57.2375 10.7608 57.0125C10.7608 56.7875 10.7183 56.5725 10.6333 56.3675C10.5533 56.1625 10.4308 55.995 10.2658 55.865C10.1058 55.73 9.9033 55.6625 9.6583 55.6625ZM12.6166 59V55.025H13.4716V55.6025H13.5166C13.5516 55.5325 13.6116 55.4475 13.6966 55.3475C13.7816 55.2425 13.8991 55.15 14.0491 55.07C14.2041 54.99 14.3991 54.95 14.6341 54.95C14.9291 54.95 15.1766 55.0175 15.3766 55.1525C15.5766 55.2875 15.7266 55.4675 15.8266 55.6925C15.9316 55.9175 15.9841 56.165 15.9841 56.435V59H15.1291V56.525C15.1291 56.285 15.0616 56.0825 14.9266 55.9175C14.7966 55.7525 14.6016 55.67 14.3416 55.67C14.1366 55.67 13.9691 55.7225 13.8391 55.8275C13.7141 55.9275 13.6216 56.06 13.5616 56.225C13.5016 56.385 13.4716 56.5575 13.4716 56.7425V59H12.6166ZM18.9173 60.5825C18.5723 60.5825 18.2873 60.5375 18.0623 60.4475C17.8373 60.3575 17.6573 60.245 17.5223 60.11C17.3873 59.98 17.2873 59.8475 17.2223 59.7125C17.1573 59.5825 17.1148 59.4725 17.0948 59.3825C17.0748 59.2925 17.0648 59.2475 17.0648 59.2475H17.9123C17.9123 59.2475 17.9223 59.2775 17.9423 59.3375C17.9623 59.4025 18.0048 59.475 18.0698 59.555C18.1398 59.64 18.2423 59.7125 18.3773 59.7725C18.5123 59.8375 18.6898 59.87 18.9098 59.87C19.1698 59.87 19.3773 59.8175 19.5323 59.7125C19.6923 59.6125 19.8048 59.4775 19.8698 59.3075C19.9398 59.1425 19.9748 58.9625 19.9748 58.7675V58.3175H19.9373C19.8823 58.4025 19.8023 58.4975 19.6973 58.6025C19.5973 58.7025 19.4623 58.79 19.2923 58.865C19.1223 58.94 18.9173 58.9775 18.6773 58.9775C18.3773 58.9775 18.1148 58.92 17.8898 58.805C17.6698 58.69 17.4848 58.5375 17.3348 58.3475C17.1898 58.1525 17.0798 57.935 17.0048 57.695C16.9298 57.455 16.8923 57.21 16.8923 56.96C16.8923 56.71 16.9298 56.4675 17.0048 56.2325C17.0798 55.9925 17.1898 55.7775 17.3348 55.5875C17.4848 55.3925 17.6698 55.2375 17.8898 55.1225C18.1148 55.0075 18.3773 54.95 18.6773 54.95C18.9173 54.95 19.1223 54.9875 19.2923 55.0625C19.4623 55.1325 19.5998 55.22 19.7048 55.325C19.8098 55.425 19.8873 55.52 19.9373 55.61H19.9748V55.025H20.8298V58.76C20.8298 59.115 20.7573 59.43 20.6123 59.705C20.4673 59.98 20.2523 60.195 19.9673 60.35C19.6823 60.505 19.3323 60.5825 18.9173 60.5825ZM18.8723 58.2725C19.1173 58.2725 19.3223 58.21 19.4873 58.085C19.6523 57.955 19.7748 57.79 19.8548 57.59C19.9348 57.39 19.9748 57.18 19.9748 56.96C19.9748 56.74 19.9348 56.53 19.8548 56.33C19.7748 56.13 19.6523 55.9675 19.4873 55.8425C19.3223 55.7175 19.1173 55.655 18.8723 55.655C18.6223 55.655 18.4148 55.7175 18.2498 55.8425C18.0848 55.9675 17.9623 56.13 17.8823 56.33C17.8023 56.53 17.7623 56.74 17.7623 56.96C17.7623 57.18 17.8023 57.39 17.8823 57.59C17.9623 57.79 18.0848 57.955 18.2498 58.085C18.4148 58.21 18.6223 58.2725 18.8723 58.2725ZM25.1041 59V54.215H23.3791V53.45H27.6991V54.215H25.9741V59H25.1041ZM28.0341 59V55.025H28.8891V55.55H28.9191C28.9941 55.395 29.1116 55.2575 29.2716 55.1375C29.4366 55.0125 29.6741 54.95 29.9841 54.95C30.0791 54.95 30.1591 54.955 30.2241 54.965C30.2941 54.975 30.3291 54.98 30.3291 54.98V55.805C30.3291 55.805 30.2916 55.8 30.2166 55.79C30.1416 55.78 30.0566 55.775 29.9616 55.775C29.6116 55.775 29.3441 55.875 29.1591 56.075C28.9791 56.27 28.8891 56.5875 28.8891 57.0275V59H28.0341ZM32.1131 54.44L31.4306 54.4325L32.0606 53.0825H32.9006L32.1131 54.44ZM31.3481 59V55.025H32.2031V59H31.3481ZM35.1403 59V53.45H37.2253C37.6603 53.45 38.0228 53.54 38.3128 53.72C38.6028 53.895 38.8203 54.1225 38.9653 54.4025C39.1103 54.6775 39.1828 54.9675 39.1828 55.2725C39.1828 55.5775 39.1103 55.87 38.9653 56.15C38.8203 56.43 38.6028 56.66 38.3128 56.84C38.0228 57.015 37.6603 57.1025 37.2253 57.1025H36.0178V59H35.1403ZM37.2253 54.215H36.0178V56.3375H37.2253C37.4653 56.3375 37.6653 56.2875 37.8253 56.1875C37.9853 56.0825 38.1053 55.95 38.1853 55.79C38.2653 55.625 38.3053 55.455 38.3053 55.28C38.3053 55.1 38.2653 54.93 38.1853 54.77C38.1053 54.605 37.9853 54.4725 37.8253 54.3725C37.6653 54.2675 37.4653 54.215 37.2253 54.215ZM40.0622 59V53.3H40.9172V55.6025H40.9622C40.9972 55.5325 41.0572 55.4475 41.1422 55.3475C41.2272 55.2425 41.3447 55.15 41.4947 55.07C41.6497 54.99 41.8447 54.95 42.0797 54.95C42.3747 54.95 42.6222 55.0175 42.8222 55.1525C43.0222 55.2875 43.1722 55.4675 43.2722 55.6925C43.3772 55.9175 43.4297 56.165 43.4297 56.435V59H42.5747V56.525C42.5747 56.285 42.5072 56.0825 42.3722 55.9175C42.2422 55.7525 42.0472 55.67 41.7872 55.67C41.5822 55.67 41.4147 55.7225 41.2847 55.8275C41.1597 55.9275 41.0672 56.06 41.0072 56.225C40.9472 56.385 40.9172 56.5575 40.9172 56.7425V59H40.0622ZM46.0387 54.4325L45.2512 53.0825H46.0987L46.7287 54.425L46.0387 54.4325ZM46.3612 59.075C45.9312 59.075 45.5662 58.9775 45.2662 58.7825C44.9712 58.5875 44.7462 58.3325 44.5912 58.0175C44.4362 57.7025 44.3587 57.3675 44.3587 57.0125C44.3587 56.6575 44.4362 56.3225 44.5912 56.0075C44.7462 55.6925 44.9712 55.4375 45.2662 55.2425C45.5662 55.0475 45.9312 54.95 46.3612 54.95C46.7912 54.95 47.1537 55.0475 47.4487 55.2425C47.7487 55.4375 47.9762 55.6925 48.1312 56.0075C48.2862 56.3225 48.3637 56.6575 48.3637 57.0125C48.3637 57.3675 48.2862 57.7025 48.1312 58.0175C47.9762 58.3325 47.7487 58.5875 47.4487 58.7825C47.1537 58.9775 46.7912 59.075 46.3612 59.075ZM46.3612 58.3475C46.6062 58.3475 46.8112 58.285 46.9762 58.16C47.1462 58.035 47.2737 57.87 47.3587 57.665C47.4487 57.46 47.4937 57.2425 47.4937 57.0125C47.4937 56.7775 47.4487 56.56 47.3587 56.36C47.2737 56.155 47.1462 55.99 46.9762 55.865C46.8112 55.74 46.6062 55.6775 46.3612 55.6775C46.1162 55.6775 45.9087 55.74 45.7387 55.865C45.5737 55.99 45.4462 56.155 45.3562 56.36C45.2712 56.56 45.2287 56.7775 45.2287 57.0125C45.2287 57.2425 45.2712 57.46 45.3562 57.665C45.4462 57.87 45.5737 58.035 45.7387 58.16C45.9087 58.285 46.1162 58.3475 46.3612 58.3475ZM49.2963 59V55.025H50.1513V55.6025H50.1963C50.2313 55.5325 50.2913 55.4475 50.3763 55.3475C50.4613 55.2425 50.5788 55.15 50.7288 55.07C50.8838 54.99 51.0788 54.95 51.3138 54.95C51.6088 54.95 51.8563 55.0175 52.0563 55.1525C52.2563 55.2875 52.4063 55.4675 52.5063 55.6925C52.6113 55.9175 52.6638 56.165 52.6638 56.435V59H51.8088V56.525C51.8088 56.285 51.7413 56.0825 51.6063 55.9175C51.4763 55.7525 51.2813 55.67 51.0213 55.67C50.8163 55.67 50.6488 55.7225 50.5188 55.8275C50.3938 55.9275 50.3013 56.06 50.2413 56.225C50.1813 56.385 50.1513 56.5575 50.1513 56.7425V59H49.2963ZM55.597 60.5825C55.252 60.5825 54.967 60.5375 54.742 60.4475C54.517 60.3575 54.337 60.245 54.202 60.11C54.067 59.98 53.967 59.8475 53.902 59.7125C53.837 59.5825 53.7945 59.4725 53.7745 59.3825C53.7545 59.2925 53.7445 59.2475 53.7445 59.2475H54.592C54.592 59.2475 54.602 59.2775 54.622 59.3375C54.642 59.4025 54.6845 59.475 54.7495 59.555C54.8195 59.64 54.922 59.7125 55.057 59.7725C55.192 59.8375 55.3695 59.87 55.5895 59.87C55.8495 59.87 56.057 59.8175 56.212 59.7125C56.372 59.6125 56.4845 59.4775 56.5495 59.3075C56.6195 59.1425 56.6545 58.9625 56.6545 58.7675V58.3175H56.617C56.562 58.4025 56.482 58.4975 56.377 58.6025C56.277 58.7025 56.142 58.79 55.972 58.865C55.802 58.94 55.597 58.9775 55.357 58.9775C55.057 58.9775 54.7945 58.92 54.5695 58.805C54.3495 58.69 54.1645 58.5375 54.0145 58.3475C53.8695 58.1525 53.7595 57.935 53.6845 57.695C53.6095 57.455 53.572 57.21 53.572 56.96C53.572 56.71 53.6095 56.4675 53.6845 56.2325C53.7595 55.9925 53.8695 55.7775 54.0145 55.5875C54.1645 55.3925 54.3495 55.2375 54.5695 55.1225C54.7945 55.0075 55.057 54.95 55.357 54.95C55.597 54.95 55.802 54.9875 55.972 55.0625C56.142 55.1325 56.2795 55.22 56.3845 55.325C56.4895 55.425 56.567 55.52 56.617 55.61H56.6545V55.025H57.5095V58.76C57.5095 59.115 57.437 59.43 57.292 59.705C57.147 59.98 56.932 60.195 56.647 60.35C56.362 60.505 56.012 60.5825 55.597 60.5825ZM55.552 58.2725C55.797 58.2725 56.002 58.21 56.167 58.085C56.332 57.955 56.4545 57.79 56.5345 57.59C56.6145 57.39 56.6545 57.18 56.6545 56.96C56.6545 56.74 56.6145 56.53 56.5345 56.33C56.4545 56.13 56.332 55.9675 56.167 55.8425C56.002 55.7175 55.797 55.655 55.552 55.655C55.302 55.655 55.0945 55.7175 54.9295 55.8425C54.7645 55.9675 54.642 56.13 54.562 56.33C54.482 56.53 54.442 56.74 54.442 56.96C54.442 57.18 54.482 57.39 54.562 57.59C54.642 57.79 54.7645 57.955 54.9295 58.085C55.0945 58.21 55.302 58.2725 55.552 58.2725ZM59.4138 57.005V56.3075H62.2113V57.005H59.4138ZM66.8003 59.075C66.3553 59.075 65.9628 58.995 65.6228 58.835C65.2828 58.67 64.9978 58.4525 64.7678 58.1825C64.5378 57.9075 64.3653 57.6 64.2503 57.26C64.1353 56.92 64.0778 56.5725 64.0778 56.2175C64.0778 55.8625 64.1353 55.5175 64.2503 55.1825C64.3653 54.8425 64.5378 54.5375 64.7678 54.2675C64.9978 53.9975 65.2828 53.7825 65.6228 53.6225C65.9628 53.4575 66.3553 53.375 66.8003 53.375C67.2503 53.375 67.6453 53.4575 67.9853 53.6225C68.3253 53.7825 68.6103 53.9975 68.8403 54.2675C69.0703 54.5375 69.2428 54.8425 69.3578 55.1825C69.4728 55.5175 69.5303 55.8625 69.5303 56.2175C69.5303 56.5675 69.4728 56.9125 69.3578 57.2525C69.2478 57.5925 69.0803 57.895 68.8553 58.16L69.6653 59H68.6378L68.3003 58.655C68.1003 58.785 67.8753 58.8875 67.6253 58.9625C67.3753 59.0375 67.1003 59.075 66.8003 59.075ZM66.8003 58.2725C66.9753 58.2725 67.1378 58.2525 67.2878 58.2125C67.4378 58.1725 67.5753 58.115 67.7003 58.04L66.8303 57.14L67.3853 56.6375L68.2478 57.53C68.3728 57.345 68.4678 57.14 68.5328 56.915C68.5978 56.69 68.6303 56.4575 68.6303 56.2175C68.6303 55.9575 68.5903 55.7075 68.5103 55.4675C68.4303 55.2225 68.3128 55.0025 68.1578 54.8075C68.0078 54.6125 67.8178 54.46 67.5878 54.35C67.3628 54.235 67.1003 54.1775 66.8003 54.1775C66.5053 54.1775 66.2428 54.235 66.0128 54.35C65.7878 54.46 65.5978 54.6125 65.4428 54.8075C65.2928 55.0025 65.1778 55.2225 65.0978 55.4675C65.0178 55.7075 64.9778 55.9575 64.9778 56.2175C64.9778 56.5675 65.0478 56.9 65.1878 57.215C65.3278 57.525 65.5328 57.78 65.8028 57.98C66.0728 58.175 66.4053 58.2725 66.8003 58.2725ZM71.6472 59.075C71.2472 59.075 70.9347 58.95 70.7097 58.7C70.4847 58.45 70.3722 58.1175 70.3722 57.7025V55.025H71.2272V57.5975C71.2272 57.8375 71.2897 58.025 71.4147 58.16C71.5447 58.29 71.7197 58.355 71.9397 58.355C72.1547 58.355 72.3272 58.3 72.4572 58.19C72.5872 58.08 72.6797 57.94 72.7347 57.77C72.7947 57.595 72.8247 57.415 72.8247 57.23V55.025H73.6797V59H72.8247V58.43H72.7797C72.7397 58.505 72.6747 58.595 72.5847 58.7C72.4997 58.8 72.3797 58.8875 72.2247 58.9625C72.0747 59.0375 71.8822 59.075 71.6472 59.075ZM76.329 54.44L75.5415 53.0825H76.3815L77.0115 54.4325L76.329 54.44ZM76.419 54.95C76.669 54.95 76.8765 54.99 77.0415 55.07C77.2115 55.15 77.3465 55.2425 77.4465 55.3475C77.5465 55.4525 77.619 55.5425 77.664 55.6175H77.709V55.025H78.564V59H77.709V58.4075H77.664C77.619 58.4825 77.5465 58.5725 77.4465 58.6775C77.3465 58.7825 77.2115 58.875 77.0415 58.955C76.8765 59.035 76.669 59.075 76.419 59.075C76.119 59.075 75.8565 59.0175 75.6315 58.9025C75.4115 58.7825 75.2265 58.625 75.0765 58.43C74.9265 58.23 74.814 58.0075 74.739 57.7625C74.669 57.5175 74.634 57.2675 74.634 57.0125C74.634 56.7575 74.669 56.5075 74.739 56.2625C74.814 56.0175 74.9265 55.7975 75.0765 55.6025C75.2265 55.4025 75.4115 55.245 75.6315 55.13C75.8565 55.01 76.119 54.95 76.419 54.95ZM76.6065 55.6625C76.3615 55.6625 76.1565 55.73 75.9915 55.865C75.8265 55.995 75.7015 56.1625 75.6165 56.3675C75.5365 56.5725 75.4965 56.7875 75.4965 57.0125C75.4965 57.2375 75.5365 57.4525 75.6165 57.6575C75.7015 57.8625 75.8265 58.0325 75.9915 58.1675C76.1565 58.2975 76.3615 58.3625 76.6065 58.3625C76.8515 58.3625 77.054 58.2975 77.214 58.1675C77.379 58.0325 77.5015 57.8625 77.5815 57.6575C77.6665 57.4525 77.709 57.2375 77.709 57.0125C77.709 56.7875 77.6665 56.5725 77.5815 56.3675C77.5015 56.1625 77.379 55.995 77.214 55.865C77.054 55.73 76.8515 55.6625 76.6065 55.6625ZM82.8744 59V54.215H81.1494V53.45H85.4694V54.215H83.7444V59H82.8744ZM87.5571 54.485C87.3021 54.485 87.0946 54.445 86.9346 54.365C86.7746 54.285 86.6496 54.185 86.5596 54.065C86.4746 53.945 86.4146 53.8275 86.3796 53.7125C86.3446 53.5925 86.3221 53.4925 86.3121 53.4125C86.3071 53.3325 86.3046 53.2925 86.3046 53.2925H86.9046C86.9046 53.2925 86.9096 53.325 86.9196 53.39C86.9296 53.455 86.9521 53.53 86.9871 53.615C87.0271 53.7 87.0921 53.775 87.1821 53.84C87.2721 53.905 87.3971 53.9375 87.5571 53.9375C87.7171 53.9375 87.8396 53.905 87.9246 53.84C88.0146 53.775 88.0771 53.7 88.1121 53.615C88.1521 53.53 88.1771 53.455 88.1871 53.39C88.1971 53.325 88.2021 53.2925 88.2021 53.2925H88.8021C88.8021 53.2925 88.7996 53.3325 88.7946 53.4125C88.7896 53.4925 88.7671 53.5925 88.7271 53.7125C88.6921 53.8275 88.6296 53.945 88.5396 54.065C88.4546 54.185 88.3321 54.285 88.1721 54.365C88.0121 54.445 87.8071 54.485 87.5571 54.485ZM87.3321 54.95C87.5821 54.95 87.7896 54.99 87.9546 55.07C88.1246 55.15 88.2596 55.2425 88.3596 55.3475C88.4596 55.4525 88.5321 55.5425 88.5771 55.6175H88.6221V55.025H89.4771V59H88.6221V58.4075H88.5771C88.5321 58.4825 88.4596 58.5725 88.3596 58.6775C88.2596 58.7825 88.1246 58.875 87.9546 58.955C87.7896 59.035 87.5821 59.075 87.3321 59.075C87.0321 59.075 86.7696 59.0175 86.5446 58.9025C86.3246 58.7825 86.1396 58.625 85.9896 58.43C85.8396 58.23 85.7271 58.0075 85.6521 57.7625C85.5821 57.5175 85.5471 57.2675 85.5471 57.0125C85.5471 56.7575 85.5821 56.5075 85.6521 56.2625C85.7271 56.0175 85.8396 55.7975 85.9896 55.6025C86.1396 55.4025 86.3246 55.245 86.5446 55.13C86.7696 55.01 87.0321 54.95 87.3321 54.95ZM87.5196 55.6625C87.2746 55.6625 87.0696 55.73 86.9046 55.865C86.7396 55.995 86.6146 56.1625 86.5296 56.3675C86.4496 56.5725 86.4096 56.7875 86.4096 57.0125C86.4096 57.2375 86.4496 57.4525 86.5296 57.6575C86.6146 57.8625 86.7396 58.0325 86.9046 58.1675C87.0696 58.2975 87.2746 58.3625 87.5196 58.3625C87.7646 58.3625 87.9671 58.2975 88.1271 58.1675C88.2921 58.0325 88.4146 57.8625 88.4946 57.6575C88.5796 57.4525 88.6221 57.2375 88.6221 57.0125C88.6221 56.7875 88.5796 56.5725 88.4946 56.3675C88.4146 56.1625 88.2921 55.995 88.1271 55.865C87.9671 55.73 87.7646 55.6625 87.5196 55.6625ZM87.5571 60.755C87.4021 60.755 87.2746 60.7025 87.1746 60.5975C87.0796 60.4925 87.0321 60.37 87.0321 60.23C87.0321 60.085 87.0796 59.96 87.1746 59.855C87.2746 59.755 87.4021 59.705 87.5571 59.705C87.7021 59.705 87.8246 59.755 87.9246 59.855C88.0246 59.96 88.0746 60.085 88.0746 60.23C88.0746 60.375 88.0246 60.4975 87.9246 60.5975C87.8246 60.7025 87.7021 60.755 87.5571 60.755ZM90.5138 59V55.025H91.3688V55.6025H91.4138C91.4488 55.5325 91.5088 55.4475 91.5938 55.3475C91.6788 55.2425 91.7963 55.15 91.9463 55.07C92.1013 54.99 92.2963 54.95 92.5313 54.95C92.8263 54.95 93.0738 55.0175 93.2738 55.1525C93.4738 55.2875 93.6238 55.4675 93.7238 55.6925C93.8288 55.9175 93.8813 56.165 93.8813 56.435V59H93.0263V56.525C93.0263 56.285 92.9588 56.0825 92.8238 55.9175C92.6938 55.7525 92.4988 55.67 92.2388 55.67C92.0338 55.67 91.8663 55.7225 91.7363 55.8275C91.6113 55.9275 91.5188 56.06 91.4588 56.225C91.3988 56.385 91.3688 56.5575 91.3688 56.7425V59H90.5138ZM96.8145 60.5825C96.4695 60.5825 96.1845 60.5375 95.9595 60.4475C95.7345 60.3575 95.5545 60.245 95.4195 60.11C95.2845 59.98 95.1845 59.8475 95.1195 59.7125C95.0545 59.5825 95.012 59.4725 94.992 59.3825C94.972 59.2925 94.962 59.2475 94.962 59.2475H95.8095C95.8095 59.2475 95.8195 59.2775 95.8395 59.3375C95.8595 59.4025 95.902 59.475 95.967 59.555C96.037 59.64 96.1395 59.7125 96.2745 59.7725C96.4095 59.8375 96.587 59.87 96.807 59.87C97.067 59.87 97.2745 59.8175 97.4295 59.7125C97.5895 59.6125 97.702 59.4775 97.767 59.3075C97.837 59.1425 97.872 58.9625 97.872 58.7675V58.3175H97.8345C97.7795 58.4025 97.6995 58.4975 97.5945 58.6025C97.4945 58.7025 97.3595 58.79 97.1895 58.865C97.0195 58.94 96.8145 58.9775 96.5745 58.9775C96.2745 58.9775 96.012 58.92 95.787 58.805C95.567 58.69 95.382 58.5375 95.232 58.3475C95.087 58.1525 94.977 57.935 94.902 57.695C94.827 57.455 94.7895 57.21 94.7895 56.96C94.7895 56.71 94.827 56.4675 94.902 56.2325C94.977 55.9925 95.087 55.7775 95.232 55.5875C95.382 55.3925 95.567 55.2375 95.787 55.1225C96.012 55.0075 96.2745 54.95 96.5745 54.95C96.8145 54.95 97.0195 54.9875 97.1895 55.0625C97.3595 55.1325 97.497 55.22 97.602 55.325C97.707 55.425 97.7845 55.52 97.8345 55.61H97.872V55.025H98.727V58.76C98.727 59.115 98.6545 59.43 98.5095 59.705C98.3645 59.98 98.1495 60.195 97.8645 60.35C97.5795 60.505 97.2295 60.5825 96.8145 60.5825ZM96.7695 58.2725C97.0145 58.2725 97.2195 58.21 97.3845 58.085C97.5495 57.955 97.672 57.79 97.752 57.59C97.832 57.39 97.872 57.18 97.872 56.96C97.872 56.74 97.832 56.53 97.752 56.33C97.672 56.13 97.5495 55.9675 97.3845 55.8425C97.2195 55.7175 97.0145 55.655 96.7695 55.655C96.5195 55.655 96.312 55.7175 96.147 55.8425C95.982 55.9675 95.8595 56.13 95.7795 56.33C95.6995 56.53 95.6595 56.74 95.6595 56.96C95.6595 57.18 95.6995 57.39 95.7795 57.59C95.8595 57.79 95.982 57.955 96.147 58.085C96.312 58.21 96.5195 58.2725 96.7695 58.2725ZM103.999 59.075C103.554 59.075 103.164 58.995 102.829 58.835C102.499 58.67 102.221 58.4525 101.996 58.1825C101.776 57.9075 101.609 57.6025 101.494 57.2675C101.384 56.9275 101.329 56.58 101.329 56.225C101.329 55.87 101.384 55.5225 101.494 55.1825C101.609 54.8425 101.776 54.5375 101.996 54.2675C102.221 53.9925 102.499 53.775 102.829 53.615C103.164 53.455 103.554 53.375 103.999 53.375C104.364 53.375 104.676 53.4225 104.936 53.5175C105.201 53.6125 105.421 53.735 105.596 53.885C105.776 54.03 105.919 54.185 106.024 54.35C106.134 54.515 106.214 54.6725 106.264 54.8225C106.319 54.9725 106.356 55.095 106.376 55.19C106.396 55.28 106.406 55.325 106.406 55.325H105.529C105.529 55.325 105.519 55.2875 105.499 55.2125C105.484 55.1325 105.446 55.035 105.386 54.92C105.331 54.805 105.246 54.6925 105.131 54.5825C105.021 54.4675 104.874 54.3725 104.689 54.2975C104.509 54.2175 104.281 54.1775 104.006 54.1775C103.711 54.1775 103.451 54.235 103.226 54.35C103.006 54.465 102.821 54.62 102.671 54.815C102.521 55.01 102.409 55.23 102.334 55.475C102.264 55.72 102.229 55.97 102.229 56.225C102.229 56.48 102.264 56.73 102.334 56.975C102.409 57.215 102.521 57.435 102.671 57.635C102.821 57.83 103.006 57.985 103.226 58.1C103.451 58.215 103.711 58.2725 104.006 58.2725C104.281 58.2725 104.509 58.235 104.689 58.16C104.874 58.08 105.021 57.9825 105.131 57.8675C105.246 57.7525 105.331 57.6375 105.386 57.5225C105.446 57.4075 105.484 57.3125 105.499 57.2375C105.519 57.1575 105.529 57.1175 105.529 57.1175H106.406C106.406 57.1175 106.396 57.165 106.376 57.26C106.356 57.355 106.319 57.4775 106.264 57.6275C106.214 57.7725 106.134 57.93 106.024 58.1C105.919 58.265 105.776 58.4225 105.596 58.5725C105.421 58.7175 105.201 58.8375 104.936 58.9325C104.676 59.0275 104.364 59.075 103.999 59.075ZM108.996 54.95C109.246 54.95 109.454 54.99 109.619 55.07C109.789 55.15 109.924 55.2425 110.024 55.3475C110.124 55.4525 110.196 55.5425 110.241 55.6175H110.286V55.025H111.141V59H110.286V58.4075H110.241C110.196 58.4825 110.124 58.5725 110.024 58.6775C109.924 58.7825 109.789 58.875 109.619 58.955C109.454 59.035 109.246 59.075 108.996 59.075C108.696 59.075 108.434 59.0175 108.209 58.9025C107.989 58.7825 107.804 58.625 107.654 58.43C107.504 58.23 107.391 58.0075 107.316 57.7625C107.246 57.5175 107.211 57.2675 107.211 57.0125C107.211 56.7575 107.246 56.5075 107.316 56.2625C107.391 56.0175 107.504 55.7975 107.654 55.6025C107.804 55.4025 107.989 55.245 108.209 55.13C108.434 55.01 108.696 54.95 108.996 54.95ZM109.184 55.6625C108.939 55.6625 108.734 55.73 108.569 55.865C108.404 55.995 108.279 56.1625 108.194 56.3675C108.114 56.5725 108.074 56.7875 108.074 57.0125C108.074 57.2375 108.114 57.4525 108.194 57.6575C108.279 57.8625 108.404 58.0325 108.569 58.1675C108.734 58.2975 108.939 58.3625 109.184 58.3625C109.429 58.3625 109.631 58.2975 109.791 58.1675C109.956 58.0325 110.079 57.8625 110.159 57.6575C110.244 57.4525 110.286 57.2375 110.286 57.0125C110.286 56.7875 110.244 56.5725 110.159 56.3675C110.079 56.1625 109.956 55.995 109.791 55.865C109.631 55.73 109.429 55.6625 109.184 55.6625ZM114.084 59.075C113.649 59.075 113.282 58.9775 112.982 58.7825C112.687 58.5875 112.462 58.3325 112.307 58.0175C112.157 57.7025 112.082 57.3675 112.082 57.0125C112.082 56.6575 112.157 56.3225 112.307 56.0075C112.462 55.6925 112.687 55.4375 112.982 55.2425C113.282 55.0475 113.649 54.95 114.084 54.95C114.514 54.95 114.877 55.0475 115.172 55.2425C115.472 55.4375 115.697 55.6925 115.847 56.0075C116.002 56.3225 116.079 56.6575 116.079 57.0125C116.079 57.3675 116.002 57.7025 115.847 58.0175C115.697 58.3325 115.472 58.5875 115.172 58.7825C114.877 58.9775 114.514 59.075 114.084 59.075ZM114.084 58.3475C114.329 58.3475 114.534 58.285 114.699 58.16C114.869 58.035 114.997 57.87 115.082 57.665C115.172 57.46 115.217 57.2425 115.217 57.0125C115.217 56.7775 115.172 56.56 115.082 56.36C114.997 56.155 114.869 55.99 114.699 55.865C114.534 55.74 114.329 55.6775 114.084 55.6775C113.839 55.6775 113.632 55.74 113.462 55.865C113.292 55.99 113.164 56.155 113.079 56.36C112.994 56.56 112.952 56.7775 112.952 57.0125C112.952 57.2425 112.994 57.46 113.079 57.665C113.164 57.87 113.292 58.035 113.462 58.16C113.632 58.285 113.839 58.3475 114.084 58.3475ZM121.284 59.075C120.839 59.075 120.449 58.995 120.114 58.835C119.784 58.67 119.506 58.4525 119.281 58.1825C119.061 57.9075 118.894 57.6025 118.779 57.2675C118.669 56.9275 118.614 56.58 118.614 56.225C118.614 55.87 118.669 55.5225 118.779 55.1825C118.894 54.8425 119.061 54.5375 119.281 54.2675C119.506 53.9925 119.784 53.775 120.114 53.615C120.449 53.455 120.839 53.375 121.284 53.375C121.649 53.375 121.961 53.4225 122.221 53.5175C122.486 53.6125 122.706 53.735 122.881 53.885C123.061 54.03 123.204 54.185 123.309 54.35C123.419 54.515 123.499 54.6725 123.549 54.8225C123.604 54.9725 123.641 55.095 123.661 55.19C123.681 55.28 123.691 55.325 123.691 55.325H122.814C122.814 55.325 122.804 55.2875 122.784 55.2125C122.769 55.1325 122.731 55.035 122.671 54.92C122.616 54.805 122.531 54.6925 122.416 54.5825C122.306 54.4675 122.159 54.3725 121.974 54.2975C121.794 54.2175 121.566 54.1775 121.291 54.1775C120.996 54.1775 120.736 54.235 120.511 54.35C120.291 54.465 120.106 54.62 119.956 54.815C119.806 55.01 119.694 55.23 119.619 55.475C119.549 55.72 119.514 55.97 119.514 56.225C119.514 56.48 119.549 56.73 119.619 56.975C119.694 57.215 119.806 57.435 119.956 57.635C120.106 57.83 120.291 57.985 120.511 58.1C120.736 58.215 120.996 58.2725 121.291 58.2725C121.566 58.2725 121.794 58.235 121.974 58.16C122.159 58.08 122.306 57.9825 122.416 57.8675C122.531 57.7525 122.616 57.6375 122.671 57.5225C122.731 57.4075 122.769 57.3125 122.784 57.2375C122.804 57.1575 122.814 57.1175 122.814 57.1175H123.691C123.691 57.1175 123.681 57.165 123.661 57.26C123.641 57.355 123.604 57.4775 123.549 57.6275C123.499 57.7725 123.419 57.93 123.309 58.1C123.204 58.265 123.061 58.4225 122.881 58.5725C122.706 58.7175 122.486 58.8375 122.221 58.9325C121.961 59.0275 121.649 59.075 121.284 59.075ZM128.097 53.5175L127.414 53.51L128.044 52.16H128.884L128.097 53.5175ZM125.254 54.4775L126.184 53.36H126.889L127.819 54.4775H127.092L126.537 53.81L125.982 54.4775H125.254ZM126.312 54.95C126.562 54.95 126.769 54.99 126.934 55.07C127.104 55.15 127.239 55.2425 127.339 55.3475C127.439 55.4525 127.512 55.5425 127.557 55.6175H127.602V55.025H128.457V59H127.602V58.4075H127.557C127.512 58.4825 127.439 58.5725 127.339 58.6775C127.239 58.7825 127.104 58.875 126.934 58.955C126.769 59.035 126.562 59.075 126.312 59.075C126.012 59.075 125.749 59.0175 125.524 58.9025C125.304 58.7825 125.119 58.625 124.969 58.43C124.819 58.23 124.707 58.0075 124.632 57.7625C124.562 57.5175 124.527 57.2675 124.527 57.0125C124.527 56.7575 124.562 56.5075 124.632 56.2625C124.707 56.0175 124.819 55.7975 124.969 55.6025C125.119 55.4025 125.304 55.245 125.524 55.13C125.749 55.01 126.012 54.95 126.312 54.95ZM126.499 55.6625C126.254 55.6625 126.049 55.73 125.884 55.865C125.719 55.995 125.594 56.1625 125.509 56.3675C125.429 56.5725 125.389 56.7875 125.389 57.0125C125.389 57.2375 125.429 57.4525 125.509 57.6575C125.594 57.8625 125.719 58.0325 125.884 58.1675C126.049 58.2975 126.254 58.3625 126.499 58.3625C126.744 58.3625 126.947 58.2975 127.107 58.1675C127.272 58.0325 127.394 57.8625 127.474 57.6575C127.559 57.4525 127.602 57.2375 127.602 57.0125C127.602 56.7875 127.559 56.5725 127.474 56.3675C127.394 56.1625 127.272 55.995 127.107 55.865C126.947 55.73 126.744 55.6625 126.499 55.6625ZM129.568 60.47V55.025H130.423V55.6175H130.468C130.518 55.5425 130.591 55.4525 130.686 55.3475C130.786 55.2425 130.918 55.15 131.083 55.07C131.253 54.99 131.466 54.95 131.721 54.95C132.016 54.95 132.276 55.01 132.501 55.13C132.726 55.245 132.911 55.4025 133.056 55.6025C133.206 55.7975 133.316 56.0175 133.386 56.2625C133.461 56.5075 133.498 56.7575 133.498 57.0125C133.498 57.2675 133.461 57.5175 133.386 57.7625C133.316 58.0075 133.206 58.23 133.056 58.43C132.911 58.625 132.726 58.7825 132.501 58.9025C132.276 59.0175 132.016 59.075 131.721 59.075C131.466 59.075 131.253 59.035 131.083 58.955C130.918 58.875 130.786 58.7825 130.686 58.6775C130.591 58.5725 130.518 58.4825 130.468 58.4075H130.423V60.47H129.568ZM130.423 57.0125C130.423 57.2375 130.463 57.4525 130.543 57.6575C130.628 57.8625 130.751 58.0325 130.911 58.1675C131.076 58.2975 131.281 58.3625 131.526 58.3625C131.776 58.3625 131.981 58.2975 132.141 58.1675C132.306 58.0325 132.428 57.8625 132.508 57.6575C132.593 57.4525 132.636 57.2375 132.636 57.0125C132.636 56.7875 132.593 56.5725 132.508 56.3675C132.428 56.1625 132.306 55.995 132.141 55.865C131.981 55.73 131.776 55.6625 131.526 55.6625C131.281 55.6625 131.076 55.73 130.911 55.865C130.751 55.995 130.628 56.1625 130.543 56.3675C130.463 56.5725 130.423 56.7875 130.423 57.0125Z" fill="#F18200"/>
</svg>
